# xmcd
#
# Track frame offsets: 
#        150
#        15312
#        26460
#        42305
#        54367
#        66235
#        77490
#        88685
#        105455
#        117560
#        132290
#        143425
#        157640
#        171452
#        183987
#        196857
#        206845
#        219877
#        233237
#        247047
#        261145
#        274150
#        287010
#        299422
#        313517
#
# Disc length: 4359 seconds
#
# Revision: 0
# Processed by: cddbd v1.5.1PL0 Copyright (c) Steve Scherf et al.
# Submitted via: ExactAudioCopy v0.95a5
#
DISCID=5f110519
DTITLE=Muddy Waters - Hoochie Coochie Man - The Complete Chess Masters
DTITLE=Volume 2, 1952-1958, CD 1
DYEAR=2004
DGENRE=Blues
TTITLE0=Standing Around Crying
TTITLE1=Gone To Main Street
TTITLE2=Iodine In My Coffee
TTITLE3=Flood
TTITLE4=My Life Is Ruined (Landlady)
TTITLE5=She's All Right
TTITLE6=She's All Right (alternate)
TTITLE7=Sad, Sad Day
TTITLE8=Turn Your Lamp Down Low (Baby Please Don't Go)
TTITLE9=Baby Please Don't Go (alternate)
TTITLE10=Loving Man
TTITLE11=Blow Wind Blow
TTITLE12=Mad Love (I Want You To Love Me)
TTITLE13=(I'm Your) Hoochie Coochie Man (alternate)
TTITLE14=(I'm Your) Hoochie Coochie Man
TTITLE15=She's So Pretty
TTITLE16=I Just Want To Make Love To You
TTITLE17=Oh Yeh (Oh Yeah)
TTITLE18=I'm Ready
TTITLE19=Smokestack Lightning
TTITLE20=I Don't Know Why
TTITLE21=I'm A Natural Born Lover
TTITLE22=Ooh Wee
TTITLE23=This Pain
TTITLE24=Young Fashioned ways
EXTD=
EXTT0=
EXTT1=
EXTT2=
EXTT3=
EXTT4=
EXTT5=
EXTT6=
EXTT7=
EXTT8=
EXTT9=
EXTT10=
EXTT11=
EXTT12=
EXTT13=
EXTT14=
EXTT15=
EXTT16=
EXTT17=
EXTT18=
EXTT19=
EXTT20=
EXTT21=
EXTT22=
EXTT23=
EXTT24=
PLAYORDER=
